<svg id="Layer_1" data-name="Layer 1" xmlns="http://www.w3.org/2000/svg" viewBox="0 0 173.1 188.82"><defs><style>.cls-1{fill:#77604a;}.cls-2{fill:#251e0a;}.cls-3{fill:#939292;}</style></defs><title>catapult-arm</title><rect class="cls-1" x="287.05" y="167.05" width="21" height="163.71" transform="translate(-279.31 157.2) rotate(-45)"/><path class="cls-2" d="M247.09,184.31l115,115.05L348,313.5l-115-115,14.14-14.14m0-1.42-15.56,15.56L348,314.92l15.56-15.56L247.09,182.89Z" transform="translate(-190.45 -126.1)"/><path class="cls-3" d="M234.46,200a43.2,43.2,0,0,1-30.76-12.75,43.74,43.74,0,0,1-1-60.44l61.49,61.49A43.28,43.28,0,0,1,234.46,200Z" transform="translate(-190.45 -126.1)"/><path class="cls-2" d="M202.67,127.53l60.75,60.75a43,43,0,0,1-60.75-60.75m0-1.43a44,44,0,0,0,62.21,62.21L202.64,126.1Z" transform="translate(-190.45 -126.1)"/></svg>