<svg id="Layer_1" data-name="Layer 1" xmlns="http://www.w3.org/2000/svg" viewBox="0 0 250 130"><defs><style>.cls-1{fill:#77604a;}.cls-2{fill:#251e0a;}.cls-3{fill:#60350a;}.cls-4{fill:#848484;}</style></defs><title>catapult-base</title><rect class="cls-1" x="337.69" y="272.78" width="93" height="13.54" transform="translate(-284.69 129.64) rotate(-45)"/><path class="cls-2" d="M412.28,242.58l8.86,8.87L356.09,316.5l-8.86-8.86,65-65.06m0-1.41-66.47,66.47,10.28,10.28,66.47-66.47-10.28-10.28Z" transform="translate(-199.55 -223.9)"/><rect class="cls-1" x="8.5" y="74.5" width="233" height="31.1"/><path class="cls-2" d="M440.55,298.9V329h-232V298.9h232m1-1h-234V330h234V297.9Z" transform="translate(-199.55 -223.9)"/><circle class="cls-3" cx="30" cy="100" r="29.5"/><path class="cls-2" d="M229.55,294.9a29,29,0,1,1-29,29,29,29,0,0,1,29-29m0-1a30,30,0,1,0,30,30,30,30,0,0,0-30-30Z" transform="translate(-199.55 -223.9)"/><rect class="cls-1" x="209.5" y="0.5" width="21" height="93"/><path class="cls-2" d="M429.55,224.9v92h-20v-92h20m1-1h-22v94h22v-94Z" transform="translate(-199.55 -223.9)"/><circle class="cls-3" cx="220" cy="100" r="29.5"/><path class="cls-2" d="M419.55,294.9a29,29,0,1,1-29,29,29,29,0,0,1,29-29m0-1a30,30,0,1,0,30,30,30,30,0,0,0-30-30Z" transform="translate(-199.55 -223.9)"/><circle class="cls-4" cx="220" cy="100" r="4.5"/><path class="cls-2" d="M419.55,319.9a4,4,0,1,1-4,4,4,4,0,0,1,4-4m0-1a5,5,0,1,0,5,5,5,5,0,0,0-5-5Z" transform="translate(-199.55 -223.9)"/><circle class="cls-4" cx="30" cy="100" r="4.5"/><path class="cls-2" d="M229.55,319.9a4,4,0,1,1-4,4,4,4,0,0,1,4-4m0-1a5,5,0,1,0,5,5,5,5,0,0,0-5-5Z" transform="translate(-199.55 -223.9)"/></svg>