<svg id="Layer_1" data-name="Layer 1" xmlns="http://www.w3.org/2000/svg" viewBox="0 0 100 100"><defs><style>.cls-1{fill:#fffd9c;}</style></defs><title>geospatial</title><rect class="cls-1" x="4.5" y="4.5" width="91" height="91"/><path d="M36.9,65l2.58-3.35c2.39,2.48,5.5,4.69,10.15,4.69,4.83,0,8.26-2.82,8.26-7.29,0-4.72-3.25-7.89-12.69-7.89V47.25c8.42,0,11.29-3.24,11.29-7.41,0-3.86-2.66-6.29-6.88-6.29-3.32,0-6.14,1.67-8.48,4l-2.76-3.25c3.08-2.85,6.72-5,11.43-5,6.91,0,11.89,3.68,11.89,10.1,0,4.78-2.91,7.85-7.22,9.44v.25c4.8,1.14,8.63,4.65,8.63,10.11,0,7.09-5.85,11.36-13.13,11.36A16.78,16.78,0,0,1,36.9,65Z"/></svg>