<svg id="Layer_1" data-name="Layer 1" xmlns="http://www.w3.org/2000/svg" viewBox="0 0 100 100"><defs><style>.cls-1{fill:#ad71ff;}</style></defs><title>geospatial</title><polygon class="cls-1" points="82 50 50 0 18 50 50 100 82 50"/><path d="M36.77,64.8l2.53-3.34c2.37,2.35,5.35,4.53,10,4.53C54.17,66,58,62.47,58,56.93s-3.34-8.73-8.43-8.73c-2.75,0-4.46.84-6.82,2.42L40,48.89l1.31-19.14h19.9v4.4H45.85L44.8,46a11.9,11.9,0,0,1,6.11-1.65c6.78,0,12.32,3.86,12.32,12.45S56.74,70.25,49.85,70.25A17.43,17.43,0,0,1,36.77,64.8Z"/></svg>