<svg id="Layer_1" data-name="Layer 1" xmlns="http://www.w3.org/2000/svg" viewBox="0 0 100 100"><defs><style>.cls-1{fill:#ff7cb6;}</style></defs><title>geospatial</title><ellipse class="cls-1" cx="50" cy="50" rx="49.75" ry="33"/><path d="M37.26,51.51c0-16,7.23-22.14,15.16-22.14A12.66,12.66,0,0,1,62,33.57l-2.85,3.21a8.67,8.67,0,0,0-6.54-3.14c-5.71,0-10.51,4.54-10.51,17.87,0,9.77,3.18,15.08,8.88,15.08,3.9,0,6.92-3.48,6.92-8.72s-2.44-8.44-7.36-8.44C48,49.43,44.73,51,42,55.06L41.81,51c2.5-3.34,6.22-5.44,9.59-5.44,6.89,0,11.34,4.14,11.34,12.3,0,7.61-5.37,12.76-11.75,12.76C43.15,70.63,37.26,64.28,37.26,51.51Z"/></svg>