<svg id="Layer_1" data-name="Layer 1" xmlns="http://www.w3.org/2000/svg" viewBox="0 0 100 100"><defs><style>.cls-1{fill:#80ebff;}</style></defs><title>geospatial</title><polygon class="cls-1" points="50 4.35 2 39.22 20.33 95.65 79.67 95.65 98 39.22 50 4.35"/><path d="M37.06,63.7c0-5.16,3.77-8.69,7.51-10.69v-.25c-3-2-5.55-5-5.55-9.19,0-6.12,4.86-10.2,11.25-10.2,7,0,11.24,4.4,11.24,10.58,0,4.17-3,7.74-5.49,9.59v.25c3.55,2.1,6.92,4.9,6.92,10.21,0,6-5.13,10.63-12.81,10.63S37.06,70,37.06,63.7Zm21,.17c0-5.16-5-7-10.77-9.3-3.19,2.08-5.56,5-5.56,8.67,0,4.38,3.65,7.58,8.52,7.58C54.87,70.82,58,68,58,63.87Zm-1-19.64c0-3.93-2.52-7-6.91-7a6.15,6.15,0,0,0-6.45,6.39c0,4.74,4.41,6.75,9.17,8.64C55.59,49.8,57.08,47.15,57.08,44.23Z"/></svg>