<svg id="Layer_1" data-name="Layer 1" xmlns="http://www.w3.org/2000/svg" viewBox="0 0 100 100"><defs><style>.cls-1{fill:#ffb68b;}</style></defs><title>geospatial</title><polygon class="cls-1" points="65.45 2.45 34.55 2.45 9.55 20.61 0 50 9.55 79.39 34.55 97.55 65.45 97.55 90.45 79.39 100 50 90.45 20.61 65.45 2.45"/><path d="M38,66.43l2.85-3.21a8.67,8.67,0,0,0,6.54,3.14c5.73,0,10.51-4.54,10.51-17.87,0-9.77-3.18-15.08-8.88-15.08-3.9,0-6.92,3.48-6.92,8.72s2.44,8.44,7.36,8.44C52,50.57,55.27,49,58,44.94L58.19,49c-2.5,3.34-6.22,5.44-9.59,5.44-6.89,0-11.34-4.14-11.34-12.3,0-7.61,5.37-12.76,11.75-12.76,7.84,0,13.73,6.35,13.73,19.12,0,16-7.23,22.14-15.16,22.14A12.6,12.6,0,0,1,38,66.43Z"/></svg>