<svg id="Layer_1" data-name="Layer 1" xmlns="http://www.w3.org/2000/svg" viewBox="0 0 816 815"><defs><style>.cls-1,.cls-4{fill:#464866;}.cls-2{fill:#c1c8e4;}.cls-3{fill:#89dcff;}.cls-4{font-size:31.61px;font-family:ArialMT, Arial;}.cls-5{letter-spacing:-0.06em;}</style></defs><title>geospatial</title><rect class="cls-1" x="1.5" y="1.5" width="271" height="271"/><path class="cls-2" d="M271,3V271H3V3H271m3-3H0V274H274V0Z"/><rect class="cls-1" x="272.5" y="1.5" width="271" height="271"/><path class="cls-2" d="M542,3V271H274V3H542m3-3H271V274H545V0Z"/><rect class="cls-1" x="543.5" y="1.5" width="271" height="271"/><path class="cls-2" d="M813,3V271H545V3H813m3-3H542V274H816V0Z"/><rect class="cls-1" x="1.5" y="272.5" width="271" height="271"/><path class="cls-2" d="M271,274V542H3V274H271m3-3H0V545H274V271Z"/><rect class="cls-1" x="272.5" y="272.5" width="271" height="271"/><path class="cls-2" d="M542,274V542H274V274H542m3-3H271V545H545V271Z"/><rect class="cls-1" x="543.5" y="272.5" width="271" height="271"/><path class="cls-2" d="M813,274V542H545V274H813m3-3H542V545H816V271Z"/><rect class="cls-1" x="1.5" y="542.5" width="271" height="271"/><path class="cls-2" d="M271,544V812H3V544H271m3-3H0V815H274V541Z"/><rect class="cls-1" x="272.5" y="542.5" width="271" height="271"/><path class="cls-2" d="M542,544V812H274V544H542m3-3H271V815H545V541Z"/><rect class="cls-1" x="543.5" y="542.5" width="271" height="271"/><path class="cls-2" d="M813,544V812H545V544H813m3-3H542V815H816V541Z"/><rect class="cls-3" x="16.25" y="17" width="241.5" height="46" rx="12"/><text class="cls-4" transform="translate(59.67 48.43)">Uppe<tspan class="cls-5" x="75.58" y="0">r</tspan><tspan x="84.36" y="0">, Left</tspan></text><rect class="cls-3" x="287.25" y="17" width="241.5" height="46" rx="12"/><text class="cls-4" transform="translate(310.47 48.43)">Uppe<tspan class="cls-5" x="75.58" y="0">r</tspan><tspan x="84.36" y="0">, Middle</tspan></text><rect class="cls-3" x="558.25" y="17" width="241.5" height="46" rx="12"/><text class="cls-4" transform="translate(591.14 48.43)">Uppe<tspan class="cls-5" x="75.58" y="0">r</tspan><tspan x="84.36" y="0">, Right</tspan></text><rect class="cls-3" x="16.25" y="287" width="241.5" height="46" rx="12"/><text class="cls-4" transform="translate(55.29 318.43)">Middle, Left</text><rect class="cls-3" x="287.25" y="287" width="241.5" height="46" rx="12"/><text class="cls-4" transform="translate(306.09 318.43)">Middle, Middle</text><rect class="cls-3" x="558.25" y="287" width="241.5" height="46" rx="12"/><text class="cls-4" transform="translate(586.75 318.43)">Middle, Right</text><rect class="cls-3" x="16.25" y="558" width="241.5" height="46" rx="12"/><text class="cls-4" transform="translate(59.67 589.43)">Lowe<tspan class="cls-5" x="75.58" y="0">r</tspan><tspan x="84.36" y="0">, Left</tspan></text><rect class="cls-3" x="287.25" y="558" width="241.5" height="46" rx="12"/><text class="cls-4" transform="translate(310.47 589.43)">Lowe<tspan class="cls-5" x="75.58" y="0">r</tspan><tspan x="84.36" y="0">, Middle</tspan></text><rect class="cls-3" x="558.25" y="558" width="241.5" height="46" rx="12"/><text class="cls-4" transform="translate(591.14 589.43)">Lowe<tspan class="cls-5" x="75.58" y="0">r</tspan><tspan x="84.36" y="0">, Right</tspan></text></svg>