<svg id="Layer_1" data-name="Layer 1" xmlns="http://www.w3.org/2000/svg" viewBox="0 0 200 200"><defs><style>.cls-1,.cls-3{fill:#00a99d;}.cls-2,.cls-6{fill:#fff;}.cls-3,.cls-6{stroke:#000;stroke-miterlimit:10;}.cls-4{fill:#003e62;}.cls-5{fill:#00809d;}</style></defs><title>hippo</title><path class="cls-1" d="M146.59,34.24a5.65,5.65,0,0,1-4.17-1.44c-2.2-2.2-2.91-5.65-2-9.72a25.43,25.43,0,0,1,7-12c4.64-4.65,10.37-7.42,15.32-7.42A8.83,8.83,0,0,1,169.21,6c3.89,3.89,6.78,9-1.28,17-5.52,5.52-15,11.22-21.34,11.22Z"/><path d="M162.78,4.13a8.35,8.35,0,0,1,6.08,2.24c2.51,2.51,3.7,4.77,3.72,7.11,0,2.79-1.61,5.79-5,9.19-5.44,5.44-14.78,11.07-21,11.07a5.19,5.19,0,0,1-3.82-1.29c-4.41-4.41-2.15-13.86,5-21.05,4.55-4.55,10.15-7.27,15-7.27m0-1c-4.88,0-10.79,2.67-15.68,7.56-7.59,7.6-9.85,17.65-5,22.47a6.17,6.17,0,0,0,4.52,1.58c6.27,0,15.83-5.51,21.69-11.37,7.6-7.59,6.1-12.9,1.29-17.71a9.33,9.33,0,0,0-6.79-2.53Z"/><path class="cls-1" d="M74.52,34.24c-6.33,0-15.82-5.7-21.34-11.22C45.12,15,48,9.9,51.9,6a8.83,8.83,0,0,1,6.43-2.38c5,0,10.68,2.77,15.33,7.42a25.49,25.49,0,0,1,7,12c.92,4.07.2,7.52-2,9.72A5.63,5.63,0,0,1,74.52,34.24Z"/><path d="M58.33,4.13h0c4.82,0,10.42,2.72,15,7.27,7.2,7.19,9.45,16.64,5,21.05a5.19,5.19,0,0,1-3.82,1.29c-6.2,0-15.54-5.63-21-11.07-3.39-3.4-5-6.4-5-9.19,0-2.34,1.2-4.6,3.71-7.11a8.35,8.35,0,0,1,6.08-2.24m0-1a9.29,9.29,0,0,0-6.78,2.53c-4.82,4.81-6.31,10.12,1.28,17.71,5.86,5.86,15.42,11.37,21.69,11.37a6.18,6.18,0,0,0,4.53-1.58c4.81-4.82,2.56-14.87-5-22.47C69.12,5.8,63.21,3.13,58.33,3.13Z"/><ellipse class="cls-1" cx="110.28" cy="60.37" rx="45.5" ry="43.5"/><path d="M110.28,17.37c24.81,0,45,19.29,45,43s-20.19,43-45,43-45-19.29-45-43,20.19-43,45-43m0-1c-25.4,0-46,19.7-46,44s20.6,44,46,44,46-19.7,46-44-20.59-44-46-44Z"/><ellipse class="cls-2" cx="130.43" cy="59.37" rx="18.65" ry="23.5"/><path d="M130.43,36.37c10,0,18.15,10.32,18.15,23s-8.14,23-18.15,23-18.15-10.31-18.15-23,8.14-23,18.15-23m0-1c-10.57,0-19.15,10.75-19.15,24s8.58,24,19.15,24,19.15-10.74,19.15-24-8.57-24-19.15-24Z"/><path class="cls-3" d="M85.15,175.56,67.47,193.24s-15.22-10.9-25.69-21.37-14.93-36.22-14.93-36.22l23.5-8.51S55.92,149.33,62,155.43,85.15,175.56,85.15,175.56Z"/><path class="cls-3" d="M185.51,196.5H159.14C157,190.16,154.05,183,151,180c-6.1-6.1-23.13-20.13-23.13-20.13l17.68-17.68s4.27,3.06,9.84,7.49a195.25,195.25,0,0,1,15.85,13.88C179.41,171.7,183.93,189.26,185.51,196.5Z"/><ellipse class="cls-2" cx="89.43" cy="59.37" rx="18.65" ry="23.5"/><path d="M89.43,36.37c10,0,18.15,10.32,18.15,23s-8.14,23-18.15,23-18.15-10.31-18.15-23,8.14-23,18.15-23m0-1c-10.57,0-19.15,10.75-19.15,24s8.58,24,19.15,24,19.15-10.74,19.15-24-8.57-24-19.15-24Z"/><path d="M89.43,72c-4.6,0-8.35-4.75-8.35-10.59s3.75-10.59,8.35-10.59,8.35,4.75,8.35,10.59S94,72,89.43,72Z"/><path d="M89.43,51.28c4.33,0,7.85,4.53,7.85,10.09s-3.52,10.09-7.85,10.09-7.85-4.52-7.85-10.09,3.53-10.09,7.85-10.09m0-1c-4.88,0-8.85,5-8.85,11.09s4,11.09,8.85,11.09,8.85-5,8.85-11.09-4-11.09-8.85-11.09Z"/><path d="M130.43,72c-4.6,0-8.35-4.75-8.35-10.59s3.75-10.59,8.35-10.59,8.35,4.75,8.35,10.59S135,72,130.43,72Z"/><path d="M130.43,51.28c4.33,0,7.85,4.53,7.85,10.09s-3.52,10.09-7.85,10.09-7.85-4.52-7.85-10.09,3.53-10.09,7.85-10.09m0-1c-4.88,0-8.85,5-8.85,11.09s4,11.09,8.85,11.09,8.85-5,8.85-11.09-4-11.09-8.85-11.09Z"/><path class="cls-1" d="M57.86,196.37c0-1.27-.08-2.58-.08-4,0-2.38.07-4.56.23-6.68a92.94,92.94,0,0,1,6.24-28.37,72.59,72.59,0,0,1,13.84-22.58,52.17,52.17,0,0,1,14-11,42.7,42.7,0,0,1,5.41-2.41,39.87,39.87,0,0,1,6.15-1.73,39.54,39.54,0,0,1,15-.06,41.55,41.55,0,0,1,6.09,1.66,42.13,42.13,0,0,1,5.77,2.54,52,52,0,0,1,14,11,69.76,69.76,0,0,1,10.46,15.12,93,93,0,0,1,9.85,42.51c0,1.07-.05,3.09-.08,4Z"/><path d="M111.28,119.37a39.32,39.32,0,0,1,7.26.68,40.39,40.39,0,0,1,6,1.64,41.54,41.54,0,0,1,5.69,2.51,51.41,51.41,0,0,1,13.84,10.88,69,69,0,0,1,10.38,15,92.43,92.43,0,0,1,9.8,42.28c0,.92,0,2.5-.07,3.5H58.34c0-1.12-.06-2.27-.06-3.5,0-2.36.07-4.53.23-6.66a92.42,92.42,0,0,1,6.21-28.2,71.8,71.8,0,0,1,13.74-22.43A51.41,51.41,0,0,1,92.3,124.2a41.9,41.9,0,0,1,5.35-2.38,39.85,39.85,0,0,1,6.06-1.71,39.32,39.32,0,0,1,7.57-.74m0-1a40,40,0,0,0-7.76.76,40.43,40.43,0,0,0-6.22,1.75,42.27,42.27,0,0,0-5.47,2.44A52.7,52.7,0,0,0,77.72,134.4a73.41,73.41,0,0,0-13.93,22.74,93.78,93.78,0,0,0-6.28,28.51c-.16,2.21-.23,4.45-.23,6.72,0,1.51,0,3,.1,4.5h107.8c0-.12.1-3.11.1-4.5a93.53,93.53,0,0,0-9.91-42.74,70.08,70.08,0,0,0-10.53-15.23,52.7,52.7,0,0,0-14.11-11.08,41.82,41.82,0,0,0-5.83-2.57,41.07,41.07,0,0,0-6.17-1.68,40,40,0,0,0-7.45-.7Z"/><ellipse class="cls-1" cx="111.28" cy="105.37" rx="49" ry="39"/><path d="M111.28,66.87c26.74,0,48.5,17.27,48.5,38.5s-21.76,38.5-48.5,38.5-48.5-17.27-48.5-38.5,21.76-38.5,48.5-38.5m0-1c-27.34,0-49.5,17.69-49.5,39.5s22.16,39.5,49.5,39.5,49.5-17.68,49.5-39.5-22.16-39.5-49.5-39.5Z"/><path class="cls-4" d="M111.28,134.57c-10.85,0-19.68-7-19.75-15.7H131C131,127.54,122.13,134.57,111.28,134.57Z"/><path d="M130.52,119.37c-.4,8.16-8.88,14.7-19.24,14.7s-18.83-6.54-19.23-14.7h38.47m1-1H91c0,.13,0,.27,0,.4,0,9,9.07,16.3,20.25,16.3s20.25-7.3,20.25-16.3c0-.13,0-.27,0-.4Z"/><path class="cls-4" d="M31.4,139.05c-1.73,0-3.47-1.49-4.34-3.67l7.18-2.47a6.4,6.4,0,0,1,0,3.7,3.31,3.31,0,0,1-2,2.29A2.73,2.73,0,0,1,31.4,139.05Z"/><path d="M33.89,133.56a5.77,5.77,0,0,1-.08,2.9,2.85,2.85,0,0,1-1.68,2,2.28,2.28,0,0,1-.73.12c-1.38,0-2.82-1.17-3.66-2.87l6.15-2.12m.67-1.28-8.14,2.79c0,.05,0,.1,0,.14.89,2.6,3,4.34,4.93,4.34a3.16,3.16,0,0,0,1.05-.17c2.25-.78,3.21-3.89,2.16-7,0,0,0-.09,0-.13Z"/><path class="cls-4" d="M39.41,136c-1.7,0-3.45-1.44-4.36-3.54l7.1-2.68c.87,2.68.11,5.34-1.77,6.05A2.91,2.91,0,0,1,39.41,136Z"/><path d="M41.82,130.47a5.81,5.81,0,0,1,0,2.9,2.84,2.84,0,0,1-1.63,2,2.36,2.36,0,0,1-.8.14,4.64,4.64,0,0,1-3.66-2.77l6.08-2.29m.63-1.3-8.05,3a.69.69,0,0,0,.05.13c.95,2.54,3,4.2,4.95,4.2a3.25,3.25,0,0,0,1.15-.21c2.23-.83,3.1-4,2-7a.69.69,0,0,0,0-.13Z"/><path class="cls-4" d="M47.18,133.09c-1.72,0-3.5-1.39-4.42-3.44l7.35-2.88a6.41,6.41,0,0,1,.17,3.69,3.51,3.51,0,0,1-2,2.43A2.85,2.85,0,0,1,47.18,133.09Z"/><path d="M49.78,127.43a5.59,5.59,0,0,1,0,2.9,3,3,0,0,1-1.7,2.1,2.53,2.53,0,0,1-.91.16,4.63,4.63,0,0,1-3.73-2.67l6.33-2.49m.61-1.31-8.29,3.25.06.14c1,2.48,3,4.08,5,4.08a3.48,3.48,0,0,0,1.27-.23c2.3-.9,3.19-4.09,2-7.11l-.06-.13Z"/><path class="cls-5" d="M136.78,102.87c-3.52,0-6.39-2.24-6.39-5s2.87-5,6.39-5,6.39,2.25,6.39,5S140.31,102.87,136.78,102.87Z"/><path d="M136.78,93.37c3.25,0,5.89,2,5.89,4.5s-2.64,4.5-5.89,4.5-5.89-2-5.89-4.5,2.64-4.5,5.89-4.5m0-1c-3.8,0-6.89,2.47-6.89,5.5s3.09,5.5,6.89,5.5,6.89-2.46,6.89-5.5-3.08-5.5-6.89-5.5Z"/><path class="cls-5" d="M84.78,102.87c-3.52,0-6.39-2.24-6.39-5s2.87-5,6.39-5,6.39,2.25,6.39,5S88.31,102.87,84.78,102.87Z"/><path d="M84.78,93.37c3.25,0,5.89,2,5.89,4.5s-2.64,4.5-5.89,4.5-5.89-2-5.89-4.5,2.64-4.5,5.89-4.5m0-1c-3.8,0-6.89,2.47-6.89,5.5s3.09,5.5,6.89,5.5,6.89-2.46,6.89-5.5-3.08-5.5-6.89-5.5Z"/><path class="cls-6" d="M97.79,118.87s-1.89,6.5,0,6.5h5.65c1.89,0,0-6.5,0-6.5Z"/><path class="cls-6" d="M118.79,118.87s-1.89,6.5,0,6.5h5.65c1.89,0,0-6.5,0-6.5Z"/></svg>